<?xml version="1.0" standalone="no"?>
<!DOCTYPE svg PUBLIC "-//W3C//DTD SVG 1.1//EN" "http://www.w3.org/Graphics/SVG/1.1/DTD/svg11.dtd" >
<svg>
<metadata>
Created by FontForge 20090914 at Fri Feb 24 13:00:58 2012
 By root
DupuyBALloon (c) 1992 by D. Rakowski. All Rights Reserved.
</metadata>
<defs>
<font id="DupuyBALloon-Italic" horiz-adv-x="237" >
  <font-face 
    font-family="DupuyBALloon-Italic"
    font-weight="5"
    font-style="italic"
    font-stretch="normal"
    units-per-em="1000"
    panose-1="0 0 0 0 0 0 0 0 0 0"
    ascent="856"
    descent="-144"
    x-height="705"
    cap-height="701"
    bbox="-79 -144 936 856"
    underline-thickness="14"
    underline-position="-85"
    slope="-12"
    unicode-range="U+0020-U+201D"
  />
<missing-glyph horiz-adv-x="856" 
d="M53 0v856h750v-856h-750zM750 53v750h-644v-750h644z" />
    <glyph glyph-name=".notdef" horiz-adv-x="856" 
d="M53 0v856h750v-856h-750zM750 53v750h-644v-750h644z" />
    <glyph glyph-name=".null" unicode="&#xd7;" horiz-adv-x="0" 
 />
    <glyph glyph-name=".null" unicode="&#x141;" horiz-adv-x="0" 
 />
    <glyph glyph-name=".null" unicode="&#xfd;" horiz-adv-x="0" 
 />
    <glyph glyph-name="nonmarkingreturn" 
 />
    <glyph glyph-name="space" unicode=" " 
 />
    <glyph glyph-name="exclam" unicode="!" horiz-adv-x="197" 
d="M387 657q4 -28 -33 -85q-25 -38 -33 -56q-30 -49 -64 -122.5t-85 -208.5q-15 -26 -40 -26q-8 0 -11 2q-7 3 -9 12t-3 18q31 112 47 163q31 99 61 165q39 87 90 155q15 12 21.5 16.5t16.5 4.5q19 0 28.5 -9.5t13.5 -28.5zM144 17q-22 -28 -53 -36q-12 -3 -21 -3
q-26 0 -41 21q-6 11 -6 23q0 22 22 48t54 32q14 2 18 2q28 0 39 -21q5 -12 5 -22q0 -21 -17 -44z" />
    <glyph glyph-name="quotedbl" unicode="&#x22;" horiz-adv-x="292" 
d="M512 721q-21 -43 -46 -81q-30 -47 -91 -124q-6 -7 -13.5 -12t-16.5 -5q-15 0 -26 17q-6 11 -6 20q0 17 20 46q16 24 21 31l51 89q31 48 71 65q4 2 11 2q12 0 20 -10t8 -24q0 -6 -3 -14zM398 721q-21 -43 -46 -81q-30 -47 -91 -124q-6 -7 -13.5 -12t-16.5 -5q-15 0 -26 17
q-6 11 -6 20q0 17 20 46q16 24 21 31l51 89q31 48 71 65q3 2 6 2h5q12 0 20 -10t8 -23q0 -7 -3 -15z" />
    <glyph glyph-name="numbersign" unicode="#" 
 />
    <glyph glyph-name="dollar" unicode="$" horiz-adv-x="474" 
d="M676 646q3 -28 -24 -63l-28 -35q-27 -12 -53 -12q-29 0 -63 17l-32.5 15.5t-28.5 7.5q-25 0 -62 -21l-62 -35q-14 -8 -20.5 -18.5t-10.5 -26.5q-1 -8 6 -14q11 -7 15 -10l139 -52q85 -32 85 -92q0 -16 -2 -25q-13 -70 -60 -131q-43 -56 -112 -100l-59.5 -28t-50.5 -14
l-48 -136q-17 -8 -32 -12.5t-27 -4.5t-25 5l-4 22q13 24 24 58t19 62q-12 4 -30 8.5l-34 8.5q-20 11 -31 19q-30 23 -39 51q0 21 16.5 40.5t38.5 26.5q24 0 74 -31q26 -16 47 -16q9 0 14 1q47 0 93 18.5t81 55.5q31 33 31 74q0 5 -2 15q-28 38 -118.5 55t-117.5 34
q-9 9 -13 22t-4 27q0 10 2.5 25t3.5 25q20 48 61 92t90 69l42 22q23 13 36 27l37 101q12 13 23.5 19.5t19.5 8t11 1.5h5q30 0 30 -25q0 -8 -2.5 -15t-17.5 -40q-11 -24 -5 -32q50 0 92 -10t82 -34z" />
    <glyph glyph-name="percent" unicode="%" 
 />
    <glyph glyph-name="ampersand" unicode="&#x26;" horiz-adv-x="563" 
d="M618 237q-11 -6 -29 -6q-19 1 -28 1q-14 0 -22.5 -3.5t-16.5 -18.5q-29 -63 -79 -113q-54 -54 -118 -78.5t-126 -24.5q-67 0 -109 29q-43 37 -43 97q0 48 29 97q21 37 70 72l84 56q-7 29 -10.5 45t-3.5 25q0 25 14 50q10 32 49 65q31 26 75 48q56 24 125 24q67 0 108 -25
q9 -9 9 -22q0 -18 -13 -36q-10 -7 -21 -10.5t-21 -3.5q-8 0 -35 4.5t-36 3.5q-6 1 -11 1h-12q-30 0 -52 -6.5t-44 -24.5q-31 -28 -31 -64q7 -24 25 -32q5 -3 15 -4t20 -1q18 0 32 -2.5t14 -25.5q-9 -41 -62 -48.5t-63 -13.5q-41 -10 -69 -26q-34 -20 -53 -50
q-10 -17 -15.5 -34t-5.5 -33q0 -5 2 -13q10 -28 34 -40.5t58 -12.5h16q6 1 28 5q42 9 81 36q43 30 59 68q7 10 8 13q2 4 -1 5q-17 1 -50 -7t-43 -8q-16 0 -24.5 6.5t-11.5 25.5q0 16 14 31t32 20q89 25 137 33.5t86 8.5q26 -5 35 -15.5t7 -25.5q1 -12 1 -18q0 -11 -8 -24z
" />
    <glyph glyph-name="quotesingle" unicode="'" horiz-adv-x="143" 
d="M374 721q-21 -43 -46 -81q-30 -47 -91 -124q-6 -7 -13.5 -12t-16.5 -5q-15 0 -26 17q-6 11 -6 20q0 17 20 46q16 24 21 31l51 89q31 48 71 65q4 2 11 2q12 0 20 -10t8 -24q0 -6 -3 -14z" />
    <glyph glyph-name="parenleft" unicode="(" horiz-adv-x="239" 
d="M286 -73q-8 -28 -26.5 -42t-40.5 -14q-7 0 -11 1q-42 9 -62 21q-26 16 -56 59q-10 43 -10 97q0 75 18 163q14 71 42 159q15 48 45 131q40 82 97 148q69 79 149 118q32 15 54 20.5t38 5.5q12 0 20 -3l6 -3q0 -47 -31 -78q-12 -12 -37.5 -19.5t-31.5 -10.5q-29 -15 -45 -27
q-21 -16 -40 -40q-57 -74 -95 -166q-32 -79 -51 -171q-14 -69 -23 -168q0 -54 12.5 -81.5t45.5 -40.5q12 -10 24 -36z" />
    <glyph glyph-name="parenright" unicode=")" horiz-adv-x="257" 
d="M400 502q-26 -91 -52 -163q-40 -111 -85 -198q-58 -111 -126 -189q-55 -41 -93 -58q-32 -14 -78 -22q-4 -1 -12 -1q-33 0 -33 30q0 10 6 27q14 14 23 22q29 26 46 36q44 13 76.5 41t61.5 81q47 84 78 150q39 84 61.5 161.5t22.5 146.5q0 23 -3 47q0 25 -11 40
q-7 10 -30 27q-5 3 -24.5 10.5t-24 17.5t-4.5 21q0 12 6 26t17 33q6 2 15.5 4t13.5 2q16 0 35 -5.5t42 -20.5q41 -30 60 -80.5t19 -110.5q0 -17 -1.5 -35.5t-5.5 -39.5z" />
    <glyph glyph-name="asterisk" unicode="*" 
 />
    <glyph glyph-name="plus" unicode="+" horiz-adv-x="357" 
d="M468 369q-4 -16 -14 -29.5t-28 -31.5l-114 -10l-24 -97q-9 -13 -24.5 -20.5t-30.5 -7.5q-20 0 -33 10.5t-9 29.5l32 91l-81 5q-17 6 -17 27q0 23 18.5 47t42.5 27l76 -2l21 62q6 12 17 20.5t28 17.5q16 0 27.5 -5.5t26.5 -16.5l-18 -83l77 -1q19 -5 27 -33z" />
    <glyph glyph-name="comma" unicode="," horiz-adv-x="134" 
d="M173 106q-19 -39 -46 -81q-30 -47 -91 -124q-6 -7 -13.5 -12t-15.5 -5q-16 0 -27 17q-6 9 -6 19q0 15 14 36.5l28 41.5l50 89q30 47 71 65q3 2 6 2h5q12 0 20 -10t8 -23q0 -7 -3 -15z" />
    <glyph glyph-name="hyphen" unicode="-" horiz-adv-x="254" 
d="M370 369q-4 -15 -14.5 -29t-25.5 -30l-65 -15l-135 14q-17 6 -17 27q0 23 18.5 47t42.5 27h58.5t31.5 -2l-10 -4q14 -1 39 -1.5t50 -0.5q17 -5 27 -33z" />
    <glyph glyph-name="hyphen" unicode="&#xad;" horiz-adv-x="254" 
d="M370 369q-4 -15 -14.5 -29t-25.5 -30l-65 -15l-135 14q-17 6 -17 27q0 23 18.5 47t42.5 27h58.5t31.5 -2l-10 -4q14 -1 39 -1.5t50 -0.5q17 -5 27 -33z" />
    <glyph glyph-name="period" unicode="." horiz-adv-x="173" 
d="M161 29q-12 -20 -32.5 -32t-40.5 -12q-19 0 -30 4.5t-18.5 17.5t-7.5 27q0 18 14 40q11 17 28.5 27.5t33 14.5t22.5 4q25 0 39 -24q7 -11 7 -26q0 -20 -15 -41z" />
    <glyph glyph-name="slash" unicode="/" horiz-adv-x="426" 
d="M646 652l-176 -219l-198 -248l-177 -220q-21 -18 -52 -21q-11 5 -16.5 11.5t-15.5 31.5l32 60l533 657q16 13 34 13t31 -12t13 -29q0 -11 -8 -24z" />
    <glyph glyph-name="zero" unicode="0" horiz-adv-x="437" 
d="M532 302q-41 -114 -81 -176q-62 -95 -151 -129q-45 -14 -86 -14q-43 0 -76.5 14.5t-53.5 44.5q-19 39 -19 87q0 67 37 178l39 112q60 126 75 149q51 81 127 118q44 20 95 20q37 0 70 -12t54 -33q8 -1 13.5 -10l10.5 -17q6 -30 6 -61q0 -55 -19 -132q-9 -37 -41 -139z
M388 177q42 85 72 178q27 86 42 177q4 13 -13 26q-9 7 -9 15q-9 9 -24 13.5t-34 4.5q-24 0 -52 -5q-19 -2 -40 -24q-15 -16 -23 -21q-51 -65 -88 -163q-20 -53 -52 -171q0 -43 12.5 -74.5t43.5 -43.5q5 -1 15 -1q22 0 40.5 4.5t48.5 16.5q20 7 35 30q21 33 26 38z" />
    <glyph glyph-name="one" unicode="1" horiz-adv-x="171" 
d="M397 668q-53 -92 -98 -203q-39 -95 -76 -211l-63 -211q-4 -16 -20.5 -30t-36.5 -18q-24 0 -32 16.5t-8 42.5q9 73 37 162q23 72 60 166l66 160q0 2 6.5 12.5t3.5 14.5q-16 0 -27 3.5t-19 14.5q-3 32 22 62q24 19 72.5 29.5t70.5 24.5q9 3 17 3q26 0 26 -28q0 -6 -1 -10z
" />
    <glyph glyph-name="two" unicode="2" horiz-adv-x="388" 
d="M397 39q-82 -46 -206.5 -49.5t-154.5 -7.5q-15 4 -20 16.5t-5 30.5q5 31 44 62q54 43 62 53l116 111q84 82 114 115q52 57 99 122q9 26 11.5 36t2.5 20q0 23 -17 31q-13 10 -36 10q-16 0 -36.5 -6t-40 -16.5t-41.5 -32.5q-66 -66 -70 -69q-21 2 -30.5 13.5t-15.5 31.5
q7 44 60 96l52 51q69 50 152 50q39 0 66 -13q22 -13 35.5 -28.5t21.5 -39.5q3 -17 3 -33q0 -87 -96 -198l-164 -183q-33 -28 -75 -67l-70 -66q5 5 8 13q47 0 130 16t97 18q20 -11 20 -34q0 -21 -16 -53z" />
    <glyph glyph-name="three" unicode="3" horiz-adv-x="406" 
d="M550 500l-135 -136l40 -26q22 -17 22 -40q4 -13 4 -34q0 -41 -19.5 -84t-54.5 -75q-57 -59 -133 -90t-153 -31q-53 22 -59 26q-32 20 -39 51q4 21 12 33.5t26.5 28t33.5 15.5q13 0 32 -15.5t29 -17.5q32 -10 62 -10q41 0 74 19q49 29 62 39q34 26 42 55q2 5 2 15
q0 20 -16 31q-25 10 -56 10q-19 0 -39 -6q-10 -2 -13 -2q-9 0 -17 4q-12 7 -18 11q-2 6 -2 11q0 10 7 24t15 25q136 107 227 220q0 12 -9 19.5t-24.5 11t-38.5 3.5q-44 0 -89.5 -19t-95.5 -54q-6 -2 -15 -2q-14 0 -20.5 9.5t-4.5 23.5q30 45 68.5 81.5t83.5 57.5
q25 13 52.5 19t56.5 6q49 0 77 -19q20 -11 33.5 -31t21.5 -46v-13q0 -32 -4 -49q-7 -28 -28 -49z" />
    <glyph glyph-name="four" unicode="4" horiz-adv-x="451" 
d="M507 216q-10 -12 -21 -16t-28 -4q-15 1 -23 1q-18 0 -31.5 -4.5t-25.5 -18.5q-20 -29 -36 -99q-8 -35 -21 -63q-12 -14 -26 -21t-28 -7q-11 0 -19 5q-8 12 -8 27q0 13 8 35q12 33 14.5 41t18.5 33.5t16 36.5q0 7 -4 11q-48 0 -91.5 -4.5t-103.5 -14.5q-13 0 -22.5 11.5
t-9.5 23.5q10 56 73 121q92 94 101 107q35 38 93 93l97 94q60 60 93 101q6 1 16 1q20 0 38 -10l24 -14l-123 -274q-8 -26 -16 -43l-31 -68q3 -11 15 -14.5t30 -3.5h21q19 0 27 -2.5t8 -12.5q0 -8 -5 -18t-20 -30zM431 481l-96 -97q-62 -62 -95 -100l102 10q13 8 21 34t12 33
q17 28 37 74q8 17 19 46z" />
    <glyph glyph-name="five" unicode="5" horiz-adv-x="443" 
d="M651 681q-7 -43 -46 -82q-29 -12 -62.5 -17.5t-67.5 -5.5q-30 0 -57 2q-81 6 -88 6q-17 -18 -28 -50q-29 -86 -33 -93l-13 -25l-6 3q36 9 68 13.5t66 4.5q50 0 85 -13t55 -45q10 -23 10 -53q0 -52 -27.5 -112t-70.5 -111q-39 -46 -92.5 -79.5t-103.5 -40.5q-77 0 -130 32
t-68 93q-3 14 8.5 28t35.5 29q14 -6 27 -20q33 -34 37 -37q13 -10 30.5 -14.5t41.5 -4.5q25 0 51 5t52 14q39 19 67.5 49.5t47.5 69.5q3 17 3 32q0 16 -6 33q-15 16 -41 24t-56 8q-34 0 -75 -10t-75 -24q-20 -5 -27 8q-6 19 -8 28l59 179q36 104 81 173q18 12 37 17.5
t37 5.5q14 0 38.5 -2.5t30.5 -2.5q14 0 28 3q55 0 86.5 1.5t85.5 7.5z" />
    <glyph glyph-name="six" unicode="6" horiz-adv-x="408" 
d="M448 145q-17 -44 -69 -85q-39 -31 -98 -59q-45 -18 -93 -18q-38 0 -71 12.5t-51 35.5q-19 31 -19 72q0 73 60 186q24 45 62 105q65 94 135 167q77 80 172 146q26 0 37 -3t20 -16q-8 -39 -54 -81l-77 -70q-25 -26 -60 -68l-60 -72q12 1 21 1.5t14 0.5q95 0 143 -58
q23 -27 23 -72q0 -29 -9 -59t-26 -65zM385 166q19 31 19 59q0 8 -3 16q-9 27 -37 39t-68 12q-22 0 -34.5 -1.5t-38.5 -7.5q-30 -3 -39 -31.5l-17 -55.5l-7 -90q23 -14 56 -14q50 0 90 15q49 18 79 59z" />
    <glyph glyph-name="seven" unicode="7" horiz-adv-x="403" 
d="M613 657l-89 -118q-100 -125 -180.5 -258t-143.5 -277q-11 -10 -22 -15t-22 -5t-19 6q-3 10 -15 20t-14 20q41 97 102 197q48 79 122 183l126 172l3 -3h-31q-86 0 -129.5 4.5t-78.5 14.5q-13 10 -13 30q0 23 16 45q11 14 27.5 21.5t39.5 12.5q44 0 79 -2q123 -7 132 -7
h11q40 0 81 6q26 0 26 -23q0 -11 -8 -24z" />
    <glyph glyph-name="eight" unicode="8" horiz-adv-x="427" 
d="M485 189q-16 -59 -46 -102q-34 -50 -88 -81q-41 -9 -81.5 -15.5t-75.5 -6.5t-61.5 6.5t-46.5 21.5q-37 43 -37 101q0 27 9 59q19 48 61 96q31 35 87 83q-21 26 -33 53.5t-12 58.5q0 42 25 91q51 102 160 139q42 14 81 14q46 0 80.5 -17.5t50.5 -51.5q11 -21 11 -53
q0 -40 -16.5 -82t-47.5 -80q-9 -17 -23 -30q-6 -5 -32 -23q45 -45 45 -116q0 -34 -10 -65zM459 553q-12 21 -27 32q-19 14 -44 14q-6 0 -20 -2q-34 -10 -51 -19q-29 -15 -39 -38q-16 -30 -16 -57q0 -19 11 -35q9 -17 28 -25t45 -8q11 0 17 1q10 7 27.5 18t27.5 15
q21 20 32 49.5t9 54.5zM358 128q17 33 25.5 57.5t8.5 48.5q-15 29 -23 42q-14 23 -34 27q-3 -1 -11.5 3t-11.5 4q-8 0 -14 -11q-80 -45 -122 -112q-5 -27 -9 -54q0 -16 8 -25q36 -13 73 -13q30 0 56 7.5t54 25.5z" />
    <glyph glyph-name="nine" unicode="9" horiz-adv-x="380" 
d="M449 316q-49 -83 -125 -169q-63 -72 -155 -158q-5 -3 -13 -4q-4 0 -7 -1q-19 0 -30 17q-2 8 -2 13q0 22 28 51q39 40 44 49l74 94q43 54 71 97q-11 -2 -27.5 -3t-29.5 -1q-47 0 -76 14q-35 17 -46 54q-8 20 -8 49q0 48 23 100.5t63 92.5q50 44 87 66q50 29 94 29
q10 1 15 1q43 0 75 -26q26 -21 44 -59q6 -21 6 -46q0 -46 -19 -98q-23 -64 -86 -162zM439 450q12 45 12 74q0 28 -10 48q-21 11 -51 11q-36 0 -82 -17q-26 -28 -40 -51q-18 -30 -18 -57q5 -20 7 -26q6 -13 18 -20q21 -3 25 -3q10 -1 27 -1q34 0 61.5 9t50.5 33z" />
    <glyph glyph-name="colon" unicode=":" horiz-adv-x="179" 
d="M277 339q-31 -44 -73 -44q-19 0 -30.5 5t-18.5 18t-7 27q0 19 12.5 38t29 29t38.5 16q6 2 16 2q26 0 40 -24q7 -11 7 -26q0 -19 -14 -41zM166 29q-29 -44 -74 -44q-19 0 -30 4.5t-18.5 17.5t-7.5 27q0 18 14 40q11 17 28.5 27.5t32.5 14.5t24 4q24 0 38 -24q7 -11 7 -27
q0 -18 -14 -40z" />
    <glyph glyph-name="semicolon" unicode=";" horiz-adv-x="185" 
d="M277 339q-31 -44 -73 -44q-19 0 -30.5 5t-18.5 18t-7 27q0 19 12.5 38t29 29t38.5 16q6 2 16 2q26 0 40 -24q7 -11 7 -26q0 -19 -14 -41zM173 106q-19 -39 -46 -81q-30 -47 -91 -124q-6 -7 -13.5 -12t-15.5 -5q-16 0 -27 17q-6 9 -6 19q0 15 14 36.5l28 41.5l50 89
q30 47 71 65q3 2 6 2h5q12 0 20 -10t8 -23q0 -7 -3 -15z" />
    <glyph glyph-name="less" unicode="&#x3c;" 
 />
    <glyph glyph-name="equal" unicode="=" horiz-adv-x="343" 
d="M434 369q-4 -15 -13.5 -28.5t-25.5 -30.5l-65 -15l-188 14q-17 6 -17 27q0 23 18.5 47t42.5 27q103 0 111 -4t111 -4q18 -6 26 -33zM395 248q-4 -16 -13.5 -29t-26.5 -30l-64 -15l-188 14q-17 7 -17 28q0 23 18.5 46.5t42.5 26.5q102 0 110 -4t111 -4q19 -6 27 -33z" />
    <glyph glyph-name="greater" unicode="&#x3e;" 
 />
    <glyph glyph-name="question" unicode="?" horiz-adv-x="418" 
d="M623 653q1 -5 1 -15q0 -57 -68 -125q-51 -47 -76 -72q-36 -35 -88 -73q-119 -87 -135 -101q11 -1 39 2.5t43 3.5q8 0 22 3t20 3q7 0 16.5 -6t9.5 -20q0 -13 -10 -28.5t-24 -25.5q-24 -18 -44.5 -23.5t-50.5 -5.5q-24 0 -56.5 -1.5t-71.5 -2.5q-21 0 -38.5 1t-36.5 5
q0 43 50 83l55 42l190 140q96 78 136 160q8 22 -9 24t-27 2q-61 0 -128 -37q-61 -33 -122 -94q-10 -2 -14 -2q-30 0 -30 25q10 29 39 54q17 15 61 44q66 43 123 67q67 28 119 28q26 0 46.5 -5.5t40.5 -18.5q15 -9 18 -31zM231 19q-31 -33 -72 -33q-15 0 -24 5q-26 11 -26 39
q0 8 1 12q7 38 50 60q19 11 42 11q38 0 47 -31q2 -10 2 -15q0 -25 -20 -48z" />
    <glyph glyph-name="at" unicode="@" 
 />
    <glyph glyph-name="A" unicode="A" horiz-adv-x="534" 
d="M535 10q2 -17 -13 -36t-34 -28q-12 -3 -27 -3q-30 0 -40 18q-8 19 -12.5 102t-41.5 107q-28 0 -65 3q-87 7 -111 7q-25 -19 -49 -55q-65 -98 -76 -109q-5 -1 -15 -1q-20 0 -31 21q18 47 51 108q8 15 103 175l72 115l74 115q39 58 84 115q27 33 65 44q26 -3 35 -23
q6 -14 6 -47v-19q0 -106 6 -211l12.5 -215.5t6.5 -182.5zM379 286q16 33 20.5 62.5t4.5 70.5q0 14 -0.5 28.5t-0.5 29.5q0 22 -10 24q-46 -28 -77 -86q-13 -24 -43 -105q4 -12 25.5 -17t31.5 -7q4 0 15 -2t17 -2q10 0 17 4z" />
    <glyph glyph-name="B" unicode="B" horiz-adv-x="477" 
d="M617 469q-25 -39 -63 -71q-9 -8 -76 -57q12 -6 22.5 -10.5t15.5 -11.5q19 -23 19 -57q0 -20 -6.5 -44t-18.5 -48q-26 -50 -69 -91q-46 -45 -98 -67q-44 -15 -89.5 -20t-106.5 -5h-13h-12q-18 0 -36 0.5t-36 0.5h-10q-9 5 -13 12.5t-4 16.5q0 16 15.5 48t17.5 43
q54 121 94.5 256.5t52.5 244.5q5 22 23 43q22 26 47 34l73 9q86 11 129 11q58 0 101 -13t68 -45q12 -23 12 -53q0 -28 -10.5 -61.5t-28.5 -64.5zM530 544q-6 25 -27 36t-54 11q-28 0 -64 -7q-23 -4 -62 -15l-64 -197q18 -3 20 -3q8 -1 22 -1q48 0 94 18t88 55q20 22 34 46
t14 45q0 8 -1 12zM408 219l-9 26q-36 17 -86 17t-95 -19l-48 -143q37 -8 77 -8q27 0 46.5 3.5t40.5 12.5q32 15 51 48q13 23 23 63z" />
    <glyph glyph-name="C" unicode="C" horiz-adv-x="506" 
d="M531 139q-39 -53 -83 -90q-51 -42 -100 -54t-89 -12q-88 0 -135 47q-39 58 -39 141q0 84 39 187q36 97 95 184q34 40 68 72q42 39 83 60q41 16 78 24.5t76 8.5q37 0 64 -10q55 -14 76 -67v-14q0 -35 -6 -56q-9 -33 -36 -58q-35 -4 -43.5 23.5t-14.5 32.5q-16 21 -41 31.5
t-58 10.5q-19 0 -39 -3q-47 -18 -84 -49.5t-56 -75.5l-22 -26t-15 -27q-25 -63 -37 -105q-16 -56 -16 -102q0 -33 9.5 -59.5t32.5 -45.5q33 -7 48.5 -10t36.5 -3q25 0 48 6.5t44 23.5q47 40 67 90q8 15 21 20.5t29 5.5q16 -1 23 -1q9 -12 9 -24q0 -15 -13 -38
q-18 -32 -20 -38z" />
    <glyph glyph-name="D" unicode="D" horiz-adv-x="523" 
d="M524 200q-47 -48 -109 -86q-49 -30 -123 -63q-6 -3 -124 -52q-15 0 -75 -13q-28 -6 -46 -6q-13 0 -27 3l-9 29q24 79 64 190l68 186q39 109 62 186q7 25 27 46.5t45 31.5q66 15 107 23q69 13 113 13q52 0 87.5 -14.5t55.5 -49.5q10 -20 14 -43t4 -50q0 -80 -37.5 -170.5
t-96.5 -160.5zM527 517q-8 26 -31.5 37.5t-57.5 11.5q-33 0 -75 -9q-16 -3 -44 -11q-25 -72 -59 -153q-53 -127 -61 -149q-33 -88 -49 -151l-5 3q49 0 109 27q40 18 108 61q80 55 125 155q40 88 40 178z" />
    <glyph glyph-name="E" unicode="E" horiz-adv-x="481" 
d="M484 40q-27 -24 -55 -33t-63 -9q-17 0 -51 3t-51 3q-24 0 -44 -4h-13q-16 0 -43 -4q-61 -9 -76 -9q-29 0 -45.5 11t-19.5 41q0 27 15 61l47 103q11 60 41 140l55 138q34 87 47 140q31 51 92 65l105 16q37 0 127 2t96 2l21 -13q6 -12 6 -26q0 -20 -13 -39
q-7 -15 -23 -24.5t-32 -11.5l-283 -22l-64 -169q16 -4 37 -4q16 0 48 3t48 3q9 0 32 2t36 2q25 0 38 -6t17 -24q4 -19 -14 -41q-8 -10 -23 -22l-40 -18q-27 -3 -102.5 -5.5t-121.5 -18.5l-58 -166l2 -2q38 0 84 2q115 5 144 5q24 0 47.5 -1t45.5 -4q17 -11 17 -30
q0 -17 -13 -36z" />
    <glyph glyph-name="F" unicode="F" horiz-adv-x="483" 
d="M676 627q-8 -13 -22 -21t-32 -14l-283 -28l-10 -4l-59 -164q111 9 222 19h23t32 -4q8 -7 12 -11q8 -9 10 -21q-4 -19 -15.5 -36t-28.5 -29q-15 -6 -198 -25q-72 -7 -118 -39q-20 -67 -50 -141q-2 -6 -38 -89q-34 -37 -70 -37q-8 0 -18 3t-13 11.5t-6 30.5l75 168
q38 89 67.5 169t57.5 172q36 69 43 80q30 45 70 64q52 0 129 8q173 18 217 18l11 -8q10 -9 10 -26q0 -25 -18 -46z" />
    <glyph glyph-name="G" unicode="G" horiz-adv-x="468" 
d="M537 222q-31 -71 -98 -132.5t-142 -89.5q-54 -17 -97 -17q-30 0 -53 7t-40 24q-24 20 -34.5 47.5t-10.5 63.5q0 74 46 186q6 15 50 110q14 15 26 46.5t19 42.5l61 76q59 51 123 84q72 37 128 37q10 -4 71.5 -12.5t61.5 -51.5q0 -10 -1 -15q-7 -20 -20 -35t-37 -28
q-29 12 -57 18.5t-59 6.5q-28 0 -48 -4t-45 -17q-64 -46 -109 -123q-17 -29 -68 -144q-14 -35 -24 -69t-10 -61q0 -25 7.5 -41t28.5 -28q23 -10 53 -10q28 0 57.5 9t58.5 26t47 39t21 50q0 23 -2.5 38t-14.5 24q-4 1 -13 1q-13 0 -52 -10q-23 -6 -32 -6q-25 0 -36 25
q6 28 23 47.5t46 35.5q30 7 76.5 9t102.5 5q22 -19 22 -52q0 -25 -13 -69q-7 -22 -13 -43z" />
    <glyph glyph-name="H" unicode="H" horiz-adv-x="534" 
d="M506 -12q-20 -33 -50 -37q-26 3 -34.5 21t-8.5 49v15.5t1 15.5l31 177q-3 8 -11 11t-20 3q-7 0 -24 -2t-24 -2q-40 -3 -82 -5.5t-80 -10.5l-87 -236q-14 -17 -35 -20l-41 -6q-16 17 -19 22q-6 10 -6 23l124 324q69 175 136 320q9 11 18.5 15t20.5 4l30 -6l16 -22
q-17 -36 -49 -146q-25 -84 -57 -134l-4 -15q17 -4 42 -4t47 2q76 7 81 7q21 3 43 7q13 4 19 15q4 13 10 28q14 36 14 53q20 45 37.5 92t31.5 95q8 5 30 25q12 11 26 11q8 1 11 1q11 0 29 -8q2 -8 2 -13q0 -17 -17.5 -57t-19.5 -59q-27 -63 -50 -152q-32 -123 -42 -152
l-40 -226q0 -16 1 -23z" />
    <glyph glyph-name="I" unicode="I" horiz-adv-x="210" 
d="M372 661l-203 -595q-12 -22 -44 -37q-13 0 -24.5 3.5t-27.5 17.5l4 58l196 564q9 14 25 21.5t32 7.5q20 0 33 -10.5t9 -29.5z" />
    <glyph glyph-name="J" unicode="J" horiz-adv-x="479" 
d="M635 497q-37 -116 -74 -207q-26 -64 -82 -187q-46 -52 -79 -76q-28 -20 -57 -30q-58 -14 -109 -14q-66 0 -114.5 22t-72.5 69q-6 12 -6 27q0 12 2 20.5t13 24.5q30 29 52 29q15 0 31 -16q37 -38 48 -40q20 -12 44.5 -19.5t51.5 -7.5q26 0 46.5 5.5t40.5 19t32 32.5
q3 5 27 65q13 53 33 108.5l40 110.5q26 70 35 106q0 30 11.5 66t31.5 68q11 12 31.5 22t37.5 10q29 0 29 -28q-6 -67 -43 -180z" />
    <glyph glyph-name="K" unicode="K" horiz-adv-x="476" 
d="M499 61q-3 -25 -24 -42q-13 -10 -39 -20q-5 -1 -15 -1q-24 0 -39 13t-24 35q-25 56 -60.5 108.5t-79.5 98.5q-3 2 -4 3q-6 3 -11 1l-12 -9l-51 -156q-32 -94 -85 -148q-23 -2 -37.5 8.5t-18.5 28.5l82.5 223.5l86 227.5l82.5 223h-15l6 -4q6 16 13.5 29t26 22t36.5 9
q23 0 34 -14q2 -2 3 -11t6 -15q-13 -44 -75 -183q-28 -64 -42 -109q2 -8 13.5 -3t20.5 10q26 14 49 32t80 74q36 29 67 67q22 27 91 127q9 10 18.5 13.5t20.5 3.5t23.5 1t29.5 9l15 -27q-4 -24 -27 -53l-37 -47l-82 -88q-42 -44 -89 -88t-95 -82l81 -129q38 -64 77 -138z
" />
    <glyph glyph-name="L" unicode="L" horiz-adv-x="550" 
d="M571 87q-6 -40 -43 -67q-28 -13 -83 -16.5t-71 -6.5q-45 0 -139 -7t-142 -7q-22 9 -34 21q-17 16 -17 37q0 7 1 11q24 82 64 190q25 67 75 190l76 187q5 11 18.5 23.5t27.5 22.5l35 9t44 5q-30 -75 -70 -166l-69 -161q-39 -94 -61 -160l-4 -25t-2 -22q0 -22 10 -35
q14 -10 40 -10q14 0 39 2.5t28 2.5q38 0 156 14q59 7 97 7q30 -12 24 -39z" />
    <glyph glyph-name="M" unicode="M" horiz-adv-x="674" 
d="M680 28q-4 -14 -17.5 -28.5t-29.5 -23.5q-10 0 -18.5 -1.5l-19.5 -3.5q-11 0 -16 9q-5 15 -7 33t-2 36q0 34 5 72l10.5 82t17 124l17.5 123q3 -6 5.5 -13t-0.5 -9q-66 -103 -119 -196q-59 -103 -111 -212q-21 -13 -31 -18q-19 -10 -30 -10q-10 0 -17 7q-2 11 -2 24.5
v20.5q0 29 7 113q4 48 4 67q0 36 3.5 108t3.5 87q8 2 10 -1t0 -6l-43 -77q-26 -47 -46 -74l-151 -271q-8 -11 -21.5 -16t-31.5 -7q-12 5 -20 21.5t-12 22.5q10 36 43 89q48 78 53 88q40 65 91 160l85 165l92 168q11 5 22.5 9.5t22.5 4.5q8 0 12 -1q10 -20 12.5 -46.5
t2.5 -38.5q0 -16 -0.5 -32t-0.5 -31q0 -19 1 -28q-6 -59 -8 -131t-2 -122l-17 -12l87 146l87 147q57 95 89 144q22 23 42 23q16 0 25 -14t7 -31q-17 -98 -33 -215.5t-27.5 -218z" />
    <glyph glyph-name="N" unicode="N" horiz-adv-x="483" 
d="M676 679q-20 -56 -57 -147q-41 -102 -57 -146q-30 -84 -44.5 -157.5t-23.5 -114.5q-18 -74 -73 -113q-38 0 -64 36l-39 60l-46 144q-16 51 -42 142q5 2 9 2q-14 -22 -29 -72q-19 -60 -29 -85q-21 -51 -31 -84q-15 -49 -23 -99h-6l-23 -53q-15 -7 -27 -7q-11 0 -19 4
q-11 7 -15 10q-9 14 -9 30q0 11 4 24t11 33q76 216 141 435q0 23 15 73q11 38 16 54l28 13q16 7 25 7q11 0 17 -9q19 -38 34 -101q42 -175 43 -177q7 -24 21 -84q21 -91 44 -131q-5 -2 -14 -4t-11 -5q22 128 71 262q45 121 120 267q26 19 53 19q30 0 30 -26z" />
    <glyph glyph-name="O" unicode="O" horiz-adv-x="493" 
d="M506 172q-37 -58 -84 -103q-56 -54 -107 -70t-99 -16q-65 0 -99 27q-26 16 -37 43.5t-11 63.5q0 26 4 55t9 58q32 112 53 165q36 92 81 155q54 76 131 124q28 15 63.5 23.5t68.5 8.5q62 0 105 -23q20 -15 34 -34.5t18 -44.5q1 -10 1.5 -18t0.5 -14q0 -84 -41 -200
q-33 -95 -91 -200zM402 174q39 75 57 113q28 60 46 119.5t18 108.5q0 21 -3 41q-15 22 -43 28t-74 6q-65 -11 -116 -100l-47 -84q-37 -89 -50 -136.5t-13 -83.5q0 -38 14 -66q18 -9 37.5 -14.5t40.5 -5.5q22 0 46 9q27 4 50.5 21.5t36.5 43.5z" />
    <glyph glyph-name="P" unicode="P" horiz-adv-x="486" 
d="M653 585q1 -9 1 -14q0 -35 -15 -74.5t-41 -69.5q-98 -100 -199 -158q-116 -66 -219 -66l-41 -113q-7 -32 -22 -57q-18 -30 -47 -50q-16 0 -28.5 7.5l-25.5 15.5q8 58 45 162q29 81 34 96q88 212 93 223q30 66 69 136l86.5 34t77.5 17q36 4 52 4.5t25 0.5q65 0 101 -18
q45 -23 54 -76zM529 539l-2 6q-31 16 -74 16q-75 0 -145 -40q-26 -55 -47 -108q-17 -43 -39 -108l2 7q54 0 112 31q16 9 107 70q38 33 58 59q28 36 28 67z" />
    <glyph glyph-name="Q" unicode="Q" horiz-adv-x="505" 
d="M597 309q-38 -120 -109 -230q1 -7 3 -13q1 -5 1 -14q0 -22 -14.5 -40.5t-28.5 -30t-33 -15.5q-18 0 -26 14t-15 28q-28 -13 -54 -19.5t-53 -6.5q-47 0 -86.5 16t-73.5 45q-16 17 -23.5 41.5t-7.5 51.5q0 33 8 73l16 79q30 99 46 139q34 88 76 144q54 73 128 109
q65 31 134 31q55 0 95 -22t54 -67q10 -21 14 -43.5t4 -49.5q0 -47 -15 -103t-40 -117zM476 257q1 6 49 160q18 58 18 92q0 39 -20 66l-51 17q-15 3 -19 3q-8 1 -21 1t-24.5 -2t-25.5 -13q-27 -11 -50 -34.5t-37 -52.5q-30 -76 -55 -151.5t-39 -143.5q-3 -12 -3 -24
q0 -27 13.5 -46.5t38.5 -29.5q10 0 27 -2.5t22 -2.5q13 0 22 4q-20 15 -29 23q-17 15 -19 37q30 27 53 39q28 15 57 15l51 -50q8 13 26 59q6 16 16 36z" />
    <glyph glyph-name="R" unicode="R" horiz-adv-x="465" 
d="M652 628q0 -79 -50 -158.5t-128 -132.5q-18 -16 -51 -36q-84 -51 -95 -59q-11 -11 -9 -17q25 -33 66 -64l73 -53q13 -8 13 -25q0 -11 -2.5 -18t-9.5 -22q-3 -10 -15 -19t-30 -18q-37 7 -73 32l-106 74q-5 3 -30 23q-18 15 -35 15q-13 -33 -25 -68q-3 -7 -23 -70
l-18 -17.5t-23 -12.5q-27 4 -33.5 30.5l-12.5 51.5l43 150q25 88 45 152q25 81 51 147l43 92q26 53 77 61q63 17 114 27q68 13 116 13q29 0 47.5 -2.5t39.5 -9.5q15 -11 25.5 -29t15.5 -37zM528 566q-21 29 -65 29q-30 0 -74 -13l-83 -25q-47 -128 -88 -270l14 5
q50 25 106 66q46 33 102 80l53 61q29 36 35 67z" />
    <glyph glyph-name="S" unicode="S" horiz-adv-x="494" 
d="M671 590q-9 -13 -19.5 -17.5t-24.5 -4.5q-10 0 -24 2l-67.5 14.5t-65.5 7.5t-57.5 -7.5t-53.5 -25.5q-28 -14 -49 -39t-26 -52q4 -23 31 -32t54 -16q90 -11 127 -27q64 -28 64 -91q-8 -77 -45 -143q-43 -76 -114 -114q-48 -27 -105.5 -44t-107.5 -17q-32 0 -60 7
t-49 23.5t-30 24.5q-18 16 -18 38q10 32 52 52q21 0 40 -7q27 -12 55 -23q27 -6 58 -6q45 0 89.5 16t80.5 51q33 36 33 78q0 11 -5 23q-22 31 -95 49q-117 29 -119 30q-59 23 -59 69q0 39 37 100q35 66 114 119q56 37 149 75q29 3 53 3q49 0 87.5 -9t81.5 -29q11 -10 11 -25
q0 -12 -6.5 -26.5t-16.5 -26.5z" />
    <glyph glyph-name="T" unicode="T" horiz-adv-x="517" 
d="M701 601q-39 -28 -90 -31l-84 -5q-6 -2 -27.5 -5t-31.5 -9q-50 -109 -56 -123q-14 -35 -24 -73l-107 -342q-9 -13 -18.5 -18.5t-19.5 -5.5q-16 1 -25 1q-14 0 -27 -5q-9 14 -9 39q0 31 18 84l25 75q15 45 44 125q52 143 68 218q0 32 -60.5 34t-75.5 20q0 40 23 66
q20 16 41 21.5t48 5.5q14 0 47.5 -2t34.5 -2q11 0 17 1q35 0 88 7q121 16 151 16h16q12 -2 17 -2l23 -10q11 -11 11 -32q0 -25 -17 -48z" />
    <glyph glyph-name="U" unicode="U" horiz-adv-x="532" 
d="M628 356q-25 -88 -49 -151q-28 -72 -67 -142q-35 -38 -80.5 -58.5t-91.5 -20.5h-13q-9 2 -13 2q-28 7 -66 7q-24 0 -65.5 -2.5t-49.5 -2.5h-19q-12 2 -18 2q-26 11 -41.5 32t-15.5 50q0 14 2 22l58 190q36 113 72 196q44 102 100 184q13 16 38.5 27.5t46.5 11.5
q31 0 31 -28q0 -6 -1 -9q-8 -23 -46 -85q-19 -31 -27 -52q-53 -109 -87 -194q-40 -99 -68 -201q9 -15 26 -21.5t40 -6.5q18 0 50.5 2.5t37.5 2.5q18 0 26 -2h27q21 0 33.5 2.5t27.5 12.5q50 44 76 124l41 139l83 285q2 6 12 14q18 16 22 20q2 0 33 -1t36 -22
q-29 -107 -34 -123q-31 -105 -67 -204z" />
    <glyph glyph-name="V" unicode="V" horiz-adv-x="519" 
d="M727 663q-98 -192 -199 -346q-114 -175 -244 -320q-12 -11 -34 -11q-21 0 -28 11q-15 76 -20 154t-5 187v116l7 109t15 92l23 31q13 15 29 18q9 4 19 4q16 0 25 -12t9 -30q0 -67 -1 -133l-2 -132q0 -69 2 -120.5t10 -107.5l-8 10q50 68 100 144q54 82 101 163l90 136
q16 36 34.5 51t42.5 15q6 3 13 3q23 0 23 -23q0 -3 -2 -9z" />
    <glyph glyph-name="W" unicode="W" horiz-adv-x="739" 
d="M936 651q-41 -90 -111 -217l-116 -211q-68 -127 -104 -215q-22 -25 -48 -25q-15 0 -23 10q-29 45 -40 105.5t-11 132.5q0 34 3 102t3 101l3 -3q-3 -2 -24 -37q-10 -16 -24 -31q-37 -46 -89 -123q-65 -98 -87 -127q-54 -73 -105 -122q-11 -4 -20 -4q-13 0 -20 10t-9 23
q0 98 17 208t46 227q18 73 61 224q24 27 52 27q9 0 21 -5q11 -23 11 -53q0 -17 -5 -40l-68 -367q-1 -7 -1 -11q0 -7 4 -8h-5q55 72 138 200l80 123l46 85q30 47 75 74q10 2 13 2q15 0 22 -10.5t7 -25.5q-11 -111 -18.5 -211t-7.5 -187q2 -21 5 -42l231 413q8 15 18 31.5
t31 25.5q15 -3 26 -19q17 -25 23 -30z" />
    <glyph glyph-name="X" unicode="X" horiz-adv-x="486" 
d="M495 43q-5 -15 -18.5 -29t-43.5 -28q-11 -3 -19 -3q-33 0 -38 31l-70 235h9l-195 -206l-39 -46l-39 -6q-10 0 -19 6q-6 11 -6 24q0 17 6 32.5t20 36.5q7 9 44 44q25 24 38 47l33 30t16 27q29 20 58 53l47 55q-6 41 -25 106q-27 93 -30 107q7 44 12 58q14 36 46 51
q35 0 50 -38t16 -40l31 -133l230 244q12 4 23 4q12 0 30 -7.5t25 -8.5q4 -5 4 -14q0 -11 -5.5 -21.5t-14.5 -23.5q-43 -38 -91 -88q-40 -41 -83 -91l-80 -94l-4 -22z" />
    <glyph glyph-name="Y" unicode="Y" horiz-adv-x="478" 
d="M678 631q-73 -85 -147 -200l-127 -210q-77 -128 -138 -211q-11 -3 -34 -14t-32 -11t-17 9q-5 10 -5 26q0 31 39 91q26 40 34 55l65 98v4q-58 72 -83 171q-21 84 -21 204q16 25 30.5 39t31 19.5t25.5 5.5q15 0 22 -15q3 -7 7 -27q0 -82 18 -153.5t57 -128.5q2 2 4.5 9.5
t4.5 9.5q30 61 116 174q58 76 81 110q15 0 35.5 9.5t31.5 7.5q10 -19 10 -39q0 -15 -8 -33z" />
    <glyph glyph-name="Z" unicode="Z" horiz-adv-x="503" 
d="M720 677q-30 -51 -79 -107l-148 -159q-46 -42 -98 -101l-86.5 -106.5l-84.5 -106.5q14 -2 23 -2q19 0 43 2t40 4q22 0 69 11t71 11q16 0 23.5 -1.5t20.5 -7.5q3 -9 3 -18q0 -20 -12 -42.5t-30 -39.5q-24 -8 -72 -11.5t-51 -3.5q-59 -5 -76 -7q-89 -9 -131 -9
q-62 0 -109 11q-12 15 -13 16q-5 8 -5 20q0 7 1 11l122 123l138 145l132 147q129 145 131 147l-4 -12q-45 0 -159.5 -2t-124.5 -2q-20 7 -20 31q0 14 4.5 26.5t13.5 26.5t26 21.5l35 15.5q44 -4 106 -6t120 -2h20h18h15h13h12h34t35 1h9q8 -3 25 -24z" />
    <glyph glyph-name="bracketleft" unicode="[" 
 />
    <glyph glyph-name="backslash" unicode="\" horiz-adv-x="426" 
d="M419 -13q-23 -22 -27 -25q-15 -12 -32 -18q-32 3 -39 21l-34 219l-37.5 248l-33.5 220q0 24 26 44.5t52 20.5q19 0 26 -13l105 -657z" />
    <glyph glyph-name="bracketright" unicode="]" 
 />
    <glyph glyph-name="asciicircum" unicode="^" 
 />
    <glyph glyph-name="underscore" unicode="_" 
 />
    <glyph glyph-name="grave" unicode="`" 
 />
    <glyph glyph-name="a" unicode="a" horiz-adv-x="534" 
d="M535 10q2 -17 -13 -36t-34 -28q-12 -3 -27 -3q-30 0 -40 18q-8 19 -12.5 102t-41.5 107q-28 0 -65 3q-87 7 -111 7q-25 -19 -49 -55q-65 -98 -76 -109q-5 -1 -15 -1q-20 0 -31 21q18 47 51 108q8 15 103 175l72 115l74 115q39 58 84 115q27 33 65 44q26 -3 35 -23
q6 -14 6 -47v-19q0 -106 6 -211l12.5 -215.5t6.5 -182.5zM379 286q16 33 20.5 62.5t4.5 70.5q0 14 -0.5 28.5t-0.5 29.5q0 22 -10 24q-46 -28 -77 -86q-13 -24 -43 -105q4 -12 25.5 -17t31.5 -7q4 0 15 -2t17 -2q10 0 17 4z" />
    <glyph glyph-name="b" unicode="b" horiz-adv-x="477" 
d="M617 469q-25 -39 -63 -71q-9 -8 -76 -57q12 -6 22.5 -10.5t15.5 -11.5q19 -23 19 -57q0 -20 -6.5 -44t-18.5 -48q-26 -50 -69 -91q-46 -45 -98 -67q-44 -15 -89.5 -20t-106.5 -5h-13h-12q-18 0 -36 0.5t-36 0.5h-10q-9 5 -13 12.5t-4 16.5q0 16 15.5 48t17.5 43
q54 121 94.5 256.5t52.5 244.5q5 22 23 43q22 26 47 34l73 9q86 11 129 11q58 0 101 -13t68 -45q12 -23 12 -53q0 -28 -10.5 -61.5t-28.5 -64.5zM530 544q-6 25 -27 36t-54 11q-28 0 -64 -7q-23 -4 -62 -15l-64 -197q18 -3 20 -3q8 -1 22 -1q48 0 94 18t88 55q20 22 34 46
t14 45q0 8 -1 12zM408 219l-9 26q-36 17 -86 17t-95 -19l-48 -143q37 -8 77 -8q27 0 46.5 3.5t40.5 12.5q32 15 51 48q13 23 23 63z" />
    <glyph glyph-name="c" unicode="c" horiz-adv-x="506" 
d="M531 139q-39 -53 -83 -90q-51 -42 -100 -54t-89 -12q-88 0 -135 47q-39 58 -39 141q0 84 39 187q36 97 95 184q34 40 68 72q42 39 83 60q41 16 78 24.5t76 8.5q37 0 64 -10q55 -14 76 -67v-14q0 -35 -6 -56q-9 -33 -36 -58q-35 -4 -43.5 23.5t-14.5 32.5q-16 21 -41 31.5
t-58 10.5q-19 0 -39 -3q-47 -18 -84 -49.5t-56 -75.5l-22 -26t-15 -27q-25 -63 -37 -105q-16 -56 -16 -102q0 -33 9.5 -59.5t32.5 -45.5q33 -7 48.5 -10t36.5 -3q25 0 48 6.5t44 23.5q47 40 67 90q8 15 21 20.5t29 5.5q16 -1 23 -1q9 -12 9 -24q0 -15 -13 -38
q-18 -32 -20 -38z" />
    <glyph glyph-name="d" unicode="d" horiz-adv-x="523" 
d="M524 200q-47 -48 -109 -86q-49 -30 -123 -63q-6 -3 -124 -52q-15 0 -75 -13q-28 -6 -46 -6q-13 0 -27 3l-9 29q24 79 64 190l68 186q39 109 62 186q7 25 27 46.5t45 31.5q66 15 107 23q69 13 113 13q52 0 87.5 -14.5t55.5 -49.5q10 -20 14 -43t4 -50q0 -80 -37.5 -170.5
t-96.5 -160.5zM527 517q-8 26 -31.5 37.5t-57.5 11.5q-33 0 -75 -9q-16 -3 -44 -11q-25 -72 -59 -153q-53 -127 -61 -149q-33 -88 -49 -151l-5 3q49 0 109 27q40 18 108 61q80 55 125 155q40 88 40 178z" />
    <glyph glyph-name="e" unicode="e" horiz-adv-x="481" 
d="M484 40q-27 -24 -55 -33t-63 -9q-17 0 -51 3t-51 3q-24 0 -44 -4h-13q-16 0 -43 -4q-61 -9 -76 -9q-29 0 -45.5 11t-19.5 41q0 27 15 61l47 103q11 60 41 140l55 138q34 87 47 140q31 51 92 65l105 16q37 0 127 2t96 2l21 -13q6 -12 6 -26q0 -20 -13 -39
q-7 -15 -23 -24.5t-32 -11.5l-283 -22l-64 -169q16 -4 37 -4q16 0 48 3t48 3q9 0 32 2t36 2q25 0 38 -6t17 -24q4 -19 -14 -41q-8 -10 -23 -22l-40 -18q-27 -3 -102.5 -5.5t-121.5 -18.5l-58 -166l2 -2q38 0 84 2q115 5 144 5q24 0 47.5 -1t45.5 -4q17 -11 17 -30
q0 -17 -13 -36z" />
    <glyph glyph-name="f" unicode="f" horiz-adv-x="483" 
d="M676 627q-8 -13 -22 -21t-32 -14l-283 -28l-10 -4l-59 -164q111 9 222 19h23t32 -4q8 -7 12 -11q8 -9 10 -21q-4 -19 -15.5 -36t-28.5 -29q-15 -6 -198 -25q-72 -7 -118 -39q-20 -67 -50 -141q-2 -6 -38 -89q-34 -37 -70 -37q-8 0 -18 3t-13 11.5t-6 30.5l75 168
q38 89 67.5 169t57.5 172q36 69 43 80q30 45 70 64q52 0 129 8q173 18 217 18l11 -8q10 -9 10 -26q0 -25 -18 -46z" />
    <glyph glyph-name="g" unicode="g" horiz-adv-x="468" 
d="M537 222q-31 -71 -98 -132.5t-142 -89.5q-54 -17 -97 -17q-30 0 -53 7t-40 24q-24 20 -34.5 47.5t-10.5 63.5q0 74 46 186q6 15 50 110q14 15 26 46.5t19 42.5l61 76q59 51 123 84q72 37 128 37q10 -4 71.5 -12.5t61.5 -51.5q0 -10 -1 -15q-7 -20 -20 -35t-37 -28
q-29 12 -57 18.5t-59 6.5q-28 0 -48 -4t-45 -17q-64 -46 -109 -123q-17 -29 -68 -144q-14 -35 -24 -69t-10 -61q0 -25 7.5 -41t28.5 -28q23 -10 53 -10q28 0 57.5 9t58.5 26t47 39t21 50q0 23 -2.5 38t-14.5 24q-4 1 -13 1q-13 0 -52 -10q-23 -6 -32 -6q-25 0 -36 25
q6 28 23 47.5t46 35.5q30 7 76.5 9t102.5 5q22 -19 22 -52q0 -25 -13 -69q-7 -22 -13 -43z" />
    <glyph glyph-name="h" unicode="h" horiz-adv-x="541" 
d="M506 -12q-20 -33 -50 -37q-26 3 -34.5 21t-8.5 49v15.5t1 15.5l31 177q-3 8 -11 11t-20 3q-7 0 -24 -2t-24 -2q-40 -3 -82 -5.5t-80 -10.5l-87 -236q-14 -17 -35 -20l-41 -6q-16 17 -19 22q-6 10 -6 23l124 324q69 175 136 320q9 11 18.5 15t20.5 4l30 -6l16 -22
q-17 -36 -49 -146q-25 -84 -57 -134l-4 -15q17 -4 42 -4t47 2q76 7 81 7q21 3 43 7q13 4 19 15q4 13 10 28q14 36 14 53q20 45 37.5 92t31.5 95q8 5 30 25q12 11 26 11q8 1 11 1q11 0 29 -8q2 -8 2 -13q0 -17 -17.5 -57t-19.5 -59q-27 -63 -50 -152q-32 -123 -42 -152
l-40 -226q0 -16 1 -23z" />
    <glyph glyph-name="i" unicode="i" horiz-adv-x="209" 
d="M378 661l-203 -595q-12 -22 -44 -37q-13 0 -24.5 3.5t-27.5 17.5l4 58l196 564q9 14 25 21.5t32 7.5q20 0 33 -10.5t9 -29.5z" />
    <glyph glyph-name="j" unicode="j" horiz-adv-x="479" 
d="M635 497q-37 -116 -74 -207q-26 -64 -82 -187q-46 -52 -79 -76q-28 -20 -57 -30q-58 -14 -109 -14q-66 0 -114.5 22t-72.5 69q-6 12 -6 27q0 12 2 20.5t13 24.5q30 29 52 29q15 0 31 -16q37 -38 48 -40q20 -12 44.5 -19.5t51.5 -7.5q26 0 46.5 5.5t40.5 19t32 32.5
q3 5 27 65q13 53 33 108.5l40 110.5q26 70 35 106q0 30 11.5 66t31.5 68q11 12 31.5 22t37.5 10q29 0 29 -28q-6 -67 -43 -180z" />
    <glyph glyph-name="k" unicode="k" horiz-adv-x="476" 
d="M499 61q-3 -25 -24 -42q-13 -10 -39 -20q-5 -1 -15 -1q-24 0 -39 13t-24 35q-25 56 -60.5 108.5t-79.5 98.5q-3 2 -4 3q-6 3 -11 1l-12 -9l-51 -156q-32 -94 -85 -148q-23 -2 -37.5 8.5t-18.5 28.5l82.5 223.5l86 227.5l82.5 223h-15l6 -4q6 16 13.5 29t26 22t36.5 9
q23 0 34 -14q2 -2 3 -11t6 -15q-13 -44 -75 -183q-28 -64 -42 -109q2 -8 13.5 -3t20.5 10q26 14 49 32t80 74q36 29 67 67q22 27 91 127q9 10 18.5 13.5t20.5 3.5t23.5 1t29.5 9l15 -27q-4 -24 -27 -53l-37 -47l-82 -88q-42 -44 -89 -88t-95 -82l81 -129q38 -64 77 -138z
" />
    <glyph glyph-name="l" unicode="l" horiz-adv-x="550" 
d="M578 87q-8 -40 -44 -67q-28 -13 -83 -16.5t-71 -6.5q-45 0 -139 -7t-142 -7q-22 9 -34 21q-17 16 -17 37q0 7 1 11q25 84 64 190q26 71 75 190q71 174 76 187q6 11 18.5 23.5t27.5 22.5q17 4 36 9t43 5q-30 -75 -70 -166l-69 -161q-37 -89 -60 -160q-7 -28 -7 -48
q0 -21 10 -34q14 -10 40 -10q14 0 39 2.5t28 2.5q38 0 156 14q59 7 97 7q13 -5 20.5 -15.5t4.5 -23.5z" />
    <glyph glyph-name="m" unicode="m" horiz-adv-x="674" 
d="M680 28q-4 -14 -17.5 -28.5t-29.5 -23.5q-10 0 -18.5 -1.5l-19.5 -3.5q-11 0 -16 9q-5 15 -7 33t-2 36q0 34 5 72l10.5 82t17 124l17.5 123q3 -6 5.5 -13t-0.5 -9q-66 -103 -119 -196q-59 -103 -111 -212q-21 -13 -31 -18q-19 -10 -30 -10q-10 0 -17 7q-2 11 -2 24.5
v20.5q0 29 7 113q4 48 4 67q0 36 3.5 108t3.5 87q8 2 10 -1t0 -6l-43 -77q-26 -47 -46 -74l-151 -271q-8 -11 -21.5 -16t-31.5 -7q-12 5 -20 21.5t-12 22.5q10 36 43 89q48 78 53 88q40 65 91 160l85 165l92 168q11 5 22.5 9.5t22.5 4.5q8 0 12 -1q10 -20 12.5 -46.5
t2.5 -38.5q0 -16 -0.5 -32t-0.5 -31q0 -19 1 -28q-6 -59 -8 -131t-2 -122l-17 -12l87 146l87 147q57 95 89 144q22 23 42 23q16 0 25 -14t7 -31q-17 -98 -33 -215.5t-27.5 -218z" />
    <glyph glyph-name="n" unicode="n" horiz-adv-x="483" 
d="M676 679q-20 -56 -57 -147q-41 -102 -57 -146q-30 -84 -44.5 -157.5t-23.5 -114.5q-18 -74 -73 -113q-38 0 -64 36l-39 60l-46 144q-16 51 -42 142q5 2 9 2q-14 -22 -29 -72q-19 -60 -29 -85q-21 -51 -31 -84q-15 -49 -23 -99h-6l-23 -53q-15 -7 -27 -7q-11 0 -19 4
q-11 7 -15 10q-9 14 -9 30q0 11 4 24t11 33q76 216 141 435q0 23 15 73q11 38 16 54l28 13q16 7 25 7q11 0 17 -9q19 -38 34 -101q42 -175 43 -177q7 -24 21 -84q21 -91 44 -131q-5 -2 -14 -4t-11 -5q22 128 71 262q45 121 120 267q26 19 53 19q30 0 30 -26z" />
    <glyph glyph-name="o" unicode="o" horiz-adv-x="493" 
d="M506 172q-37 -58 -84 -103q-56 -54 -107 -70t-99 -16q-65 0 -99 27q-26 16 -37 43.5t-11 63.5q0 26 4 55t9 58q32 112 53 165q36 92 81 155q54 76 131 124q28 15 63.5 23.5t68.5 8.5q62 0 105 -23q20 -15 34 -34.5t18 -44.5q1 -10 1.5 -18t0.5 -14q0 -84 -41 -200
q-33 -95 -91 -200zM402 174q39 75 57 113q28 60 46 119.5t18 108.5q0 21 -3 41q-15 22 -43 28t-74 6q-65 -11 -116 -100l-47 -84q-37 -89 -50 -136.5t-13 -83.5q0 -38 14 -66q18 -9 37.5 -14.5t40.5 -5.5q22 0 46 9q27 4 50.5 21.5t36.5 43.5z" />
    <glyph glyph-name="p" unicode="p" horiz-adv-x="486" 
d="M653 585q1 -9 1 -14q0 -35 -15 -74.5t-41 -69.5q-98 -100 -199 -158q-116 -66 -219 -66l-41 -113q-7 -32 -22 -57q-18 -30 -47 -50q-16 0 -28.5 7.5l-25.5 15.5q8 58 45 162q29 81 34 96q88 212 93 223q30 66 69 136l86.5 34t77.5 17q36 4 52 4.5t25 0.5q65 0 101 -18
q45 -23 54 -76zM529 539l-2 6q-31 16 -74 16q-75 0 -145 -40q-26 -55 -47 -108q-17 -43 -39 -108l2 7q54 0 112 31q16 9 107 70q38 33 58 59q28 36 28 67z" />
    <glyph glyph-name="q" unicode="q" horiz-adv-x="505" 
d="M597 309q-38 -120 -109 -230q1 -7 3 -13q1 -5 1 -14q0 -22 -14.5 -40.5t-28.5 -30t-33 -15.5q-18 0 -26 14t-15 28q-28 -13 -54 -19.5t-53 -6.5q-47 0 -86.5 16t-73.5 45q-16 17 -23.5 41.5t-7.5 51.5q0 33 8 73l16 79q30 99 46 139q34 88 76 144q54 73 128 109
q65 31 134 31q55 0 95 -22t54 -67q10 -21 14 -43.5t4 -49.5q0 -47 -15 -103t-40 -117zM476 257q1 6 49 160q18 58 18 92q0 39 -20 66l-51 17q-15 3 -19 3q-8 1 -21 1t-24.5 -2t-25.5 -13q-27 -11 -50 -34.5t-37 -52.5q-30 -76 -55 -151.5t-39 -143.5q-3 -12 -3 -24
q0 -27 13.5 -46.5t38.5 -29.5q10 0 27 -2.5t22 -2.5q13 0 22 4q-20 15 -29 23q-17 15 -19 37q30 27 53 39q28 15 57 15l51 -50q8 13 26 59q6 16 16 36z" />
    <glyph glyph-name="r" unicode="r" horiz-adv-x="465" 
d="M652 628q0 -79 -50 -158.5t-128 -132.5q-18 -16 -51 -36q-84 -51 -95 -59q-11 -11 -9 -17q25 -33 66 -64l73 -53q13 -8 13 -25q0 -11 -2.5 -18t-9.5 -22q-3 -10 -15 -19t-30 -18q-37 7 -73 32l-106 74q-5 3 -30 23q-18 15 -35 15q-13 -33 -25 -68q-3 -7 -23 -70
l-18 -17.5t-23 -12.5q-27 4 -33.5 30.5l-12.5 51.5l43 150q25 88 45 152q25 81 51 147l43 92q26 53 77 61q63 17 114 27q68 13 116 13q29 0 47.5 -2.5t39.5 -9.5q15 -11 25.5 -29t15.5 -37zM528 566q-21 29 -65 29q-30 0 -74 -13l-83 -25q-47 -128 -88 -270l14 5
q50 25 106 66q46 33 102 80l53 61q29 36 35 67z" />
    <glyph glyph-name="s" unicode="s" horiz-adv-x="494" 
d="M671 590q-9 -13 -19.5 -17.5t-24.5 -4.5q-10 0 -24 2l-67.5 14.5t-65.5 7.5t-57.5 -7.5t-53.5 -25.5q-28 -14 -49 -39t-26 -52q4 -23 31 -32t54 -16q90 -11 127 -27q64 -28 64 -91q-8 -77 -45 -143q-43 -76 -114 -114q-48 -27 -105.5 -44t-107.5 -17q-32 0 -60 7
t-49 23.5t-30 24.5q-18 16 -18 38q10 32 52 52q21 0 40 -7q27 -12 55 -23q27 -6 58 -6q45 0 89.5 16t80.5 51q33 36 33 78q0 11 -5 23q-22 31 -95 49q-117 29 -119 30q-59 23 -59 69q0 39 37 100q35 66 114 119q56 37 149 75q29 3 53 3q49 0 87.5 -9t81.5 -29q11 -10 11 -25
q0 -12 -6.5 -26.5t-16.5 -26.5z" />
    <glyph glyph-name="t" unicode="t" horiz-adv-x="517" 
d="M701 601q-39 -28 -90 -31l-84 -5q-6 -2 -27.5 -5t-31.5 -9q-50 -109 -56 -123q-14 -35 -24 -73l-107 -342q-9 -13 -18.5 -18.5t-19.5 -5.5q-16 1 -25 1q-14 0 -27 -5q-9 14 -9 39q0 31 18 84l25 75q15 45 44 125q52 143 68 218q0 32 -60.5 34t-75.5 20q0 40 23 66
q20 16 41 21.5t48 5.5q14 0 47.5 -2t34.5 -2q11 0 17 1q35 0 88 7q121 16 151 16h16q12 -2 17 -2l23 -10q11 -11 11 -32q0 -25 -17 -48z" />
    <glyph glyph-name="u" unicode="u" horiz-adv-x="537" 
d="M628 356q-25 -88 -49 -151q-28 -72 -67 -142q-35 -38 -80.5 -58.5t-91.5 -20.5h-13q-9 2 -13 2q-28 7 -66 7q-24 0 -65.5 -2.5t-49.5 -2.5h-19q-12 2 -18 2q-26 11 -41.5 32t-15.5 50q0 14 2 22l58 190q36 113 72 196q44 102 100 184q13 16 38.5 27.5t46.5 11.5
q31 0 31 -28q0 -6 -1 -9q-8 -23 -46 -85q-19 -31 -27 -52q-53 -109 -87 -194q-40 -99 -68 -201q9 -15 26 -21.5t40 -6.5q18 0 50.5 2.5t37.5 2.5q18 0 26 -2h27q21 0 33.5 2.5t27.5 12.5q50 44 76 124l41 139l83 285q2 6 12 14q18 16 22 20q2 0 33 -1t36 -22
q-29 -107 -34 -123q-31 -105 -67 -204z" />
    <glyph glyph-name="v" unicode="v" horiz-adv-x="519" 
d="M727 663q-98 -192 -199 -346q-114 -175 -244 -320q-12 -11 -34 -11q-21 0 -28 11q-15 76 -20 154t-5 187v116l7 109t15 92l23 31q13 15 29 18q9 4 19 4q16 0 25 -12t9 -30q0 -67 -1 -133l-2 -132q0 -69 2 -120.5t10 -107.5l-8 10q50 68 100 144q54 82 101 163l90 136
q16 36 34.5 51t42.5 15q6 3 13 3q23 0 23 -23q0 -3 -2 -9z" />
    <glyph glyph-name="w" unicode="w" horiz-adv-x="739" 
d="M936 651q-41 -90 -111 -217l-116 -211q-68 -127 -104 -215q-22 -25 -48 -25q-15 0 -23 10q-29 45 -40 105.5t-11 132.5q0 34 3 102t3 101l3 -3q-3 -2 -24 -37q-10 -16 -24 -31q-37 -46 -89 -123q-65 -98 -87 -127q-54 -73 -105 -122q-11 -4 -20 -4q-13 0 -20 10t-9 23
q0 98 17 208t46 227q18 73 61 224q24 27 52 27q9 0 21 -5q11 -23 11 -53q0 -17 -5 -40l-68 -367q-1 -7 -1 -11q0 -7 4 -8h-5q55 72 138 200l80 123l46 85q30 47 75 74q10 2 13 2q15 0 22 -10.5t7 -25.5q-11 -111 -18.5 -211t-7.5 -187q2 -21 5 -42l231 413q8 15 18 31.5
t31 25.5q15 -3 26 -19q17 -25 23 -30z" />
    <glyph glyph-name="x" unicode="x" horiz-adv-x="486" 
d="M495 43q-5 -15 -18.5 -29t-43.5 -28q-11 -3 -19 -3q-33 0 -38 31l-70 235h9l-195 -206l-39 -46l-39 -6q-10 0 -19 6q-6 11 -6 24q0 17 6 32.5t20 36.5q7 9 44 44q25 24 38 47l33 30t16 27q29 20 58 53l47 55q-6 41 -25 106q-27 93 -30 107q7 44 12 58q14 36 46 51
q35 0 50 -38t16 -40l31 -133l230 244q12 4 23 4q12 0 30 -7.5t25 -8.5q4 -5 4 -14q0 -11 -5.5 -21.5t-14.5 -23.5q-43 -38 -91 -88q-40 -41 -83 -91l-80 -94l-4 -22z" />
    <glyph glyph-name="y" unicode="y" horiz-adv-x="478" 
d="M678 631q-73 -85 -147 -200l-127 -210q-77 -128 -138 -211q-11 -3 -34 -14t-32 -11t-17 9q-5 10 -5 26q0 31 39 91q26 40 34 55l65 98v4q-58 72 -83 171q-21 84 -21 204q16 25 30.5 39t31 19.5t25.5 5.5q15 0 22 -15q3 -7 7 -27q0 -82 18 -153.5t57 -128.5q2 2 4.5 9.5
t4.5 9.5q30 61 116 174q58 76 81 110q15 0 35.5 9.5t31.5 7.5q10 -19 10 -39q0 -15 -8 -33z" />
    <glyph glyph-name="z" unicode="z" horiz-adv-x="503" 
d="M720 677q-30 -51 -79 -107l-148 -159q-46 -42 -98 -101l-86.5 -106.5l-84.5 -106.5q14 -2 23 -2q19 0 43 2t40 4q22 0 69 11t71 11q16 0 23.5 -1.5t20.5 -7.5q3 -9 3 -18q0 -20 -12 -42.5t-30 -39.5q-24 -8 -72 -11.5t-51 -3.5q-59 -5 -76 -7q-89 -9 -131 -9
q-62 0 -109 11q-12 15 -13 16q-5 8 -5 20q0 7 1 11l122 123l138 145l132 147q129 145 131 147l-4 -12q-45 0 -159.5 -2t-124.5 -2q-20 7 -20 31q0 14 4.5 26.5t13.5 26.5t26 21.5l35 15.5q44 -4 106 -6t120 -2h20h18h15h13h12h34t35 1h9q8 -3 25 -24z" />
    <glyph glyph-name="braceleft" unicode="{" 
 />
    <glyph glyph-name="bar" unicode="|" 
 />
    <glyph glyph-name="braceright" unicode="}" 
 />
    <glyph glyph-name="asciitilde" unicode="~" 
 />
    <glyph glyph-name="nonbreakingspace" unicode="&#xa0;" horiz-adv-x="500" 
 />
    <glyph glyph-name="endash" unicode="&#x2013;" horiz-adv-x="339" 
d="M457 369q-4 -15 -14.5 -29t-25.5 -30l-64 -14l-223 13q-17 6 -17 27q0 23 18.5 47t42.5 27q103 0 128 -4t128 -4q17 -5 27 -33z" />
    <glyph glyph-name="emdash" unicode="&#x2014;" horiz-adv-x="496" 
d="M611 369q-5 -17 -13.5 -29t-26.5 -30l-64 -14l-377 13q-17 6 -17 27q0 23 18.5 47t42.5 27l410 -8q19 -5 27 -33z" />
    <glyph glyph-name="quotedblleft" unicode="&#x201c;" horiz-adv-x="281" 
d="M415 516q-11 -8 -20.5 -12.5t-18.5 -4.5q-14 0 -18 17q-4 27 -7 59t-3 61q0 40 6 85q3 16 22 32t35 16q3 0 9 -2q17 -10 23 -25.5t6 -37.5q0 -15 -2 -33q-5 -46 -5 -58v-20t1 -19q0 -17 -6 -31t-22 -27zM301 516q-11 -8 -20.5 -12.5t-18.5 -4.5q-14 0 -17 17
q-6 42 -8.5 67t-2.5 56q0 38 6 82q3 16 22 32t35 16q3 0 9 -2q17 -10 23 -25.5t6 -37.5q0 -15 -2 -33q-5 -46 -5 -58v-20t1 -19q0 -17 -6 -31t-22 -27z" />
    <glyph glyph-name="quotedblright" unicode="&#x201d;" horiz-adv-x="250" 
d="M488 721q-21 -43 -46 -81q-30 -47 -91 -124q-6 -7 -13.5 -12t-16.5 -5q-15 0 -26 17q-6 11 -6 20q0 17 20 46q16 24 21 31l51 89q31 48 71 65q4 2 11 2q12 0 20 -10t8 -24q0 -6 -3 -14zM374 721q-21 -43 -46 -81q-30 -47 -91 -124q-6 -7 -13.5 -12t-16.5 -5q-15 0 -26 17
q-6 11 -6 20q0 17 20 46q16 24 21 31l51 89q31 48 71 65q4 2 11 2q12 0 20 -10t8 -24q0 -6 -3 -14z" />
    <glyph glyph-name="quoteleft" unicode="&#x2018;" horiz-adv-x="151" 
d="M295 516q-11 -8 -20.5 -12.5t-18.5 -4.5q-14 0 -18 17q-4 27 -7 59t-3 61q0 40 6 85q3 16 22 32t35 16q3 0 9 -2q17 -10 23 -25.5t6 -37.5q0 -15 -2 -33q-5 -46 -5 -58v-20t1 -19q0 -17 -6 -31t-22 -27z" />
    <glyph glyph-name="quoteright" unicode="&#x2019;" horiz-adv-x="137" 
d="M374 721q-21 -43 -46 -81q-30 -47 -91 -124q-6 -7 -13.5 -12t-16.5 -5q-15 0 -26 17q-6 11 -6 20q0 17 20 46q16 24 21 31l51 89q31 48 71 65q4 2 11 2q12 0 20 -10t8 -24q0 -6 -3 -14z" />
  </font>
</defs>
</svg>
