<?xml version="1.0" standalone="no"?>
<!DOCTYPE svg PUBLIC "-//W3C//DTD SVG 20010904//EN"
 "http://www.w3.org/TR/2001/REC-SVG-20010904/DTD/svg10.dtd">
<svg version="1.0" xmlns="http://www.w3.org/2000/svg"
 width="1850.000000pt" height="1041.000000pt" viewBox="0 0 1850.000000 1041.000000"
 preserveAspectRatio="xMidYMid meet">
<metadata>
Created by potrace 1.15, written by Peter Selinger 2001-2017
</metadata>
<g transform="translate(0.000000,1041.000000) scale(0.100000,-0.100000)"
fill="#000000" stroke="none">
<path d="M0 7874 c0 -2404 1 -2538 17 -2550 17 -13 17 -15 1 -28 -17 -12 -18
-131 -18 -2178 l0 -2165 25 5 c31 6 33 -10 3 -23 l-23 -10 -3 -462 -2 -463
391 0 c382 0 390 0 384 19 -4 13 1 27 14 40 26 26 47 27 61 1 8 -15 6 -24 -10
-40 l-20 -20 2655 0 2654 0 11 20 c12 22 35 17 26 -6 -5 -12 182 -14 1274 -14
l1280 0 0 39 c0 22 5 43 11 47 8 4 10 -8 8 -40 l-4 -46 2362 0 c1622 0 2363 3
2363 10 0 7 6 7 19 1 11 -6 179 -10 440 -11 l422 0 -20 26 c-21 27 -28 64 -13
64 15 0 93 -60 99 -75 4 -13 226 -15 1721 -15 1552 0 1714 1 1696 16 -18 14
-18 15 6 8 14 -3 29 -10 35 -15 5 -5 150 -9 322 -9 l313 0 0 1565 c0 1558 0
1565 -20 1565 -11 0 -20 5 -20 10 0 6 9 10 20 10 20 0 20 7 20 539 0 504 -1
539 -17 546 -17 6 -17 7 0 19 16 13 17 168 17 3085 l0 3071 -3170 0 c-2813 0
-3169 -2 -3164 -15 4 -8 1 -15 -5 -15 -6 0 -11 7 -11 15 0 13 -491 15 -4380
15 -4019 0 -4380 -1 -4380 -16 0 -15 -2 -15 -25 0 -19 12 -51 16 -146 16 -118
0 -121 -1 -106 -18 23 -25 22 -53 0 -45 -24 9 -43 35 -38 51 3 9 -308 12
-1535 12 l-1540 0 0 -2536z"/>
</g>
</svg>
